<svg xmlns="http://www.w3.org/2000/svg" viewBox="0 0 24 24">
  <defs>
    <style>
      .cls-1 {
        fill: #222;
      }
    </style>
  </defs>
  <path class="cls-1"
    d="M13.5 6V13.5H10.5V6H13.5zM12 18C11.1 18 10.5 17.4 10.5 16.5 10.5 15.6 11.1 15 12 15 12.9 15 13.5 15.6 13.5 16.5 13.5 17.4 12.9 18 12 18z" />
  <path class="cls-1" fill-rule="evenodd"
    d="M12 0C5.4 0 0 5.4 0 12C0 18.6 5.4 24 12 24C18.6 24 24 18.6 24 12C24 5.4 18.6 0 12 0ZM1.5 12C1.5 6.22843 6.22843 1.5 12 1.5C17.7716 1.5 22.5 6.22843 22.5 12C22.5 17.7716 17.7716 22.5 12 22.5C6.22843 22.5 1.5 17.7716 1.5 12Z"
    clip-rule="evenodd" />
</svg>